# xmcd CD database file
#
# Track frame offsets:
#	150
#	16110
#	38488
#	64808
#	82594
#	105782
#	123798
#	142272
#	164118
#	186905
#	210850
#	230630
#	255389
#	277269
#	302274
#	321810
#
# Disc length: 4547 seconds
#
# Revision: 0
# Processed by: cddbd v1.4PL0 Copyright (c) Steve Scherf et al.
# Submitted via: CDex 1.51
#
DISCID=ca11c110
DTITLE=Gregorian Chants - Love Songs
DYEAR=2000
DGENRE=New Age
TTITLE0=imagine
TTITLE1=lady in red
TTITLE2=when you say nothing at all
TTITLE3=againts all adds
TTITLE4=nights in white satin
TTITLE5=beauty and the beast
TTITLE6=can you feel the love tonight
TTITLE7=angles
TTITLE8=how deep is your love
TTITLE9=when I need you
TTITLE10=perhaps love
TTITLE11=hard to say I'm sorry
TTITLE12=scarborough fair
TTITLE13=fears in heaven
TTITLE14=fade to grey
TTITLE15=the sound of silence
EXTD=YEAR: 2000
EXTT0=
EXTT1=
EXTT2=
EXTT3=
EXTT4=
EXTT5=
EXTT6=
EXTT7=
EXTT8=
EXTT9=
EXTT10=
EXTT11=
EXTT12=
EXTT13=
EXTT14=
EXTT15=
PLAYORDER=
